<svg width="24" height="25" viewBox="0 0 24 25" fill="none" xmlns="http://www.w3.org/2000/svg">
<path d="M11.99 2.92041C6.47 2.92041 2 7.40041 2 12.9204C2 18.4404 6.47 22.9204 11.99 22.9204C17.52 22.9204 22 18.4404 22 12.9204C22 7.40041 17.52 2.92041 11.99 2.92041ZM12 20.9204C7.58 20.9204 4 17.3404 4 12.9204C4 8.50041 7.58 4.92041 12 4.92041C16.42 4.92041 20 8.50041 20 12.9204C20 17.3404 16.42 20.9204 12 20.9204Z" fill="#8994AE"/>
<path d="M12.5 7.92041H11V13.9204L16.25 17.0704L17 15.8404L12.5 13.1704V7.92041Z" fill="#8994AE"/>
</svg>
