<svg width="20" height="20" viewBox="0 0 20 20" fill="none" xmlns="http://www.w3.org/2000/svg">
<path d="M13.3332 10.625H6.6665C6.32484 10.625 6.0415 10.3417 6.0415 10C6.0415 9.65833 6.32484 9.375 6.6665 9.375H13.3332C13.6748 9.375 13.9582 9.65833 13.9582 10C13.9582 10.3417 13.6748 10.625 13.3332 10.625Z" fill="#B3B3BF"/>
<path d="M10 13.9584C9.65833 13.9584 9.375 13.6751 9.375 13.3334V6.66675C9.375 6.32508 9.65833 6.04175 10 6.04175C10.3417 6.04175 10.625 6.32508 10.625 6.66675V13.3334C10.625 13.6751 10.3417 13.9584 10 13.9584Z" fill="#B3B3BF"/>
<path d="M12.4998 18.9584H7.49984C2.97484 18.9584 1.0415 17.0251 1.0415 12.5001V7.50008C1.0415 2.97508 2.97484 1.04175 7.49984 1.04175H12.4998C17.0248 1.04175 18.9582 2.97508 18.9582 7.50008V12.5001C18.9582 17.0251 17.0248 18.9584 12.4998 18.9584ZM7.49984 2.29175C3.65817 2.29175 2.2915 3.65841 2.2915 7.50008V12.5001C2.2915 16.3417 3.65817 17.7084 7.49984 17.7084H12.4998C16.3415 17.7084 17.7082 16.3417 17.7082 12.5001V7.50008C17.7082 3.65841 16.3415 2.29175 12.4998 2.29175H7.49984Z" fill="#B3B3BF"/>
</svg>
