<svg width="28" height="28" viewBox="0 0 28 28" fill="none" xmlns="http://www.w3.org/2000/svg">
<path d="M23.3337 9.62516V21.0002C23.3337 24.5002 21.2453 25.6668 18.667 25.6668H9.33366C6.75533 25.6668 4.66699 24.5002 4.66699 21.0002V9.62516C4.66699 5.8335 6.75533 4.9585 9.33366 4.9585C9.33366 5.68183 9.62529 6.33516 10.1036 6.81349C10.582 7.29183 11.2353 7.5835 11.9587 7.5835H16.042C17.4887 7.5835 18.667 6.40516 18.667 4.9585C21.2453 4.9585 23.3337 5.8335 23.3337 9.62516Z" stroke="white" stroke-width="1.5" stroke-linecap="round" stroke-linejoin="round"/>
<path d="M18.6663 4.9585C18.6663 6.40516 17.488 7.5835 16.0413 7.5835H11.958C11.2347 7.5835 10.5813 7.29182 10.103 6.81349C9.62464 6.33516 9.33301 5.68183 9.33301 4.9585C9.33301 3.51183 10.5113 2.3335 11.958 2.3335H16.0413C16.7647 2.3335 17.418 2.62517 17.8964 3.1035C18.3747 3.58183 18.6663 4.23516 18.6663 4.9585Z" stroke="white" stroke-width="1.5" stroke-linecap="round" stroke-linejoin="round"/>
<path d="M9.33301 15.1665H13.9997" stroke="white" stroke-width="1.5" stroke-linecap="round" stroke-linejoin="round"/>
<path d="M9.33301 19.8335H18.6663" stroke="white" stroke-width="1.5" stroke-linecap="round" stroke-linejoin="round"/>
</svg>
