<svg width="35" height="36" viewBox="0 0 35 36" fill="none" xmlns="http://www.w3.org/2000/svg">
<ellipse cx="17.5006" cy="17.9799" rx="17.0562" ry="17.0531" fill="#282151" fill-opacity="0.56"/>
<path d="M22.0564 24.163L22.0271 24.1336H21.9856H10.6601C9.90908 24.1336 9.18886 23.8353 8.65785 23.3044C8.12683 22.7735 7.82852 22.0534 7.82852 21.3026V11.5326C7.82852 10.7817 8.12683 10.0617 8.65785 9.53075C9.18886 8.99983 9.90908 8.70156 10.6601 8.70156H24.3406C25.0916 8.70156 25.8118 8.99983 26.3428 9.53075C26.8738 10.0617 27.1721 10.7817 27.1721 11.5326L27.1721 27.1641C27.1721 27.1642 27.1721 27.1644 27.1721 27.1645C27.1712 27.3375 27.1191 27.5064 27.0224 27.6498C26.9256 27.7934 26.7885 27.9052 26.6283 27.971L26.6282 27.9708L26.6236 27.973C26.5218 28.021 26.4101 28.0445 26.2975 28.0416V28.0416L26.2944 28.0416C26.1789 28.0423 26.0645 28.0202 25.9576 27.9765C25.8508 27.9329 25.7536 27.8686 25.6716 27.7874C25.6716 27.7873 25.6716 27.7873 25.6716 27.7873L22.0564 24.163ZM25.2469 24.8806L25.4178 25.0522V24.81V11.5326C25.4178 11.2469 25.3043 10.973 25.1022 10.771C24.9002 10.569 24.6263 10.4556 24.3406 10.4556H10.6601C10.3744 10.4556 10.1004 10.569 9.89838 10.771C9.69637 10.973 9.58288 11.2469 9.58288 11.5326V21.3026C9.58288 21.5882 9.69637 21.8622 9.89838 22.0642C10.1004 22.2661 10.3744 22.3796 10.6601 22.3796L22.3862 22.3796L22.3868 22.3796C22.5022 22.3789 22.6167 22.4011 22.7236 22.4447C22.8303 22.4883 22.9275 22.5525 23.0094 22.6337C23.0094 22.6338 23.0095 22.6339 23.0096 22.6339L25.2469 24.8806ZM17.013 15.6884C17.1572 15.592 17.3268 15.5406 17.5003 15.5406C17.733 15.5406 17.9561 15.633 18.1206 15.7975C18.2851 15.9619 18.3775 16.185 18.3775 16.4176C18.3775 16.591 18.3261 16.7606 18.2297 16.9048C18.1333 17.049 17.9963 17.1614 17.836 17.2278C17.6757 17.2942 17.4993 17.3116 17.3292 17.2777C17.159 17.2439 17.0027 17.1604 16.88 17.0377C16.7574 16.9151 16.6738 16.7588 16.64 16.5887C16.6061 16.4186 16.6235 16.2422 16.6899 16.082C16.7563 15.9217 16.8687 15.7848 17.013 15.6884ZM13.1043 15.6884C13.2485 15.592 13.4181 15.5406 13.5916 15.5406C13.8242 15.5406 14.0474 15.633 14.2119 15.7975C14.3764 15.9619 14.4688 16.185 14.4688 16.4176C14.4688 16.591 14.4173 16.7606 14.3209 16.9048C14.2246 17.049 14.0876 17.1614 13.9273 17.2278C13.767 17.2942 13.5906 17.3116 13.4205 17.2777C13.2503 17.2439 13.094 17.1604 12.9713 17.0377C12.8487 16.9151 12.7651 16.7588 12.7313 16.5887C12.6974 16.4186 12.7148 16.2422 12.7812 16.082C12.8476 15.9217 12.96 15.7848 13.1043 15.6884ZM20.9217 15.6884C21.0659 15.592 21.2355 15.5406 21.409 15.5406C21.6417 15.5406 21.8648 15.633 22.0293 15.7975C22.1938 15.9619 22.2862 16.185 22.2862 16.4176C22.2862 16.591 22.2348 16.7606 22.1384 16.9048C22.042 17.049 21.905 17.1614 21.7447 17.2278C21.5844 17.2942 21.4081 17.3116 21.2379 17.2777C21.0677 17.2439 20.9114 17.1604 20.7888 17.0377C20.6661 16.9151 20.5826 16.7588 20.5487 16.5887C20.5149 16.4186 20.5322 16.2422 20.5986 16.082C20.665 15.9217 20.7774 15.7848 20.9217 15.6884Z" fill="#999AA9" stroke="#16143F" stroke-width="0.2"/>
</svg>
