<svg width="24" height="25" viewBox="0 0 24 25" fill="none" xmlns="http://www.w3.org/2000/svg">
<path d="M12.1964 6.59567C12.1796 6.55917 12.1527 6.52825 12.1189 6.50658C12.085 6.48491 12.0457 6.47339 12.0056 6.47339C11.9654 6.47339 11.9261 6.48491 11.8922 6.50658C11.8584 6.52825 11.8315 6.55917 11.8148 6.59567L10.9556 8.45927C10.9405 8.49172 10.9173 8.51978 10.8883 8.54079C10.8594 8.56179 10.8255 8.57503 10.79 8.57927L8.75115 8.82167C8.7114 8.82648 8.67385 8.84256 8.64293 8.86802C8.61201 8.89347 8.58902 8.92723 8.57666 8.96532C8.5643 9.00341 8.56309 9.04424 8.57317 9.083C8.58325 9.12176 8.6042 9.15682 8.63355 9.18407L10.1408 10.5773C10.1672 10.6017 10.187 10.6325 10.1981 10.6667C10.2093 10.701 10.2114 10.7375 10.2044 10.7729L9.80355 12.7853C9.76875 12.9617 9.95595 13.0973 10.112 13.0097L11.9036 12.0077C11.9348 11.9903 11.9699 11.9812 12.0056 11.9812C12.0412 11.9812 12.0764 11.9903 12.1076 12.0077L13.8992 13.0097C14.0552 13.0973 14.2424 12.9617 14.2076 12.7853L13.808 10.7729C13.8009 10.7375 13.803 10.701 13.8142 10.6667C13.8253 10.6325 13.8451 10.6017 13.8716 10.5773L15.3776 9.18407C15.4069 9.15682 15.4279 9.12176 15.4379 9.083C15.448 9.04424 15.4468 9.00341 15.4344 8.96532C15.4221 8.92723 15.3991 8.89347 15.3682 8.86802C15.3373 8.84256 15.2997 8.82648 15.26 8.82167L13.2224 8.57927C13.1866 8.57523 13.1525 8.56207 13.1233 8.54106C13.0941 8.52005 13.0707 8.49188 13.0556 8.45927L12.1964 6.59567Z" fill="#FEB411"/>
<path d="M19.1998 10.0732C19.2009 11.0864 18.9877 12.0883 18.574 13.0132C18.1604 13.9381 17.5557 14.765 16.7998 15.4396V21.4732C16.7998 21.5783 16.7721 21.6815 16.7197 21.7725C16.6672 21.8636 16.5918 21.9393 16.5009 21.992C16.41 22.0447 16.3069 22.0727 16.2018 22.073C16.0968 22.0734 15.9934 22.0461 15.9022 21.994L11.9998 19.7644L8.09741 21.994C8.00617 22.0461 7.90285 22.0734 7.79778 22.073C7.69271 22.0727 7.58957 22.0447 7.49869 21.992C7.40781 21.9393 7.33237 21.8636 7.27992 21.7725C7.22747 21.6815 7.19984 21.5783 7.19981 21.4732V15.4396C6.30462 14.6389 5.62395 13.627 5.21977 12.4961C4.81559 11.3651 4.70074 10.151 4.88568 8.96434C5.07062 7.77765 5.54948 6.65608 6.27864 5.70175C7.00781 4.74741 7.96412 3.99064 9.06049 3.50034C10.1569 3.01005 11.3585 2.8018 12.5559 2.89456C13.7533 2.98732 14.9085 3.37814 15.9163 4.03144C16.9241 4.68475 17.7524 5.57977 18.3259 6.63501C18.8994 7.69026 19.1998 8.8722 19.1998 10.0732ZM11.9998 17.2732C10.7358 17.2751 9.49385 16.9426 8.39981 16.3096V20.44L11.7022 18.5524C11.7928 18.5006 11.8954 18.4734 11.9998 18.4734C12.1042 18.4734 12.2068 18.5006 12.2974 18.5524L15.5998 20.4412V16.3108C14.5057 16.9434 13.2637 17.2755 11.9998 17.2732ZM11.9998 16.0732C13.5911 16.0732 15.1172 15.4411 16.2424 14.3159C17.3677 13.1906 17.9998 11.6645 17.9998 10.0732C17.9998 8.48191 17.3677 6.95579 16.2424 5.83057C15.1172 4.70535 13.5911 4.07321 11.9998 4.07321C10.4085 4.07321 8.88238 4.70535 7.75717 5.83057C6.63195 6.95579 5.99981 8.48191 5.99981 10.0732C5.99981 11.6645 6.63195 13.1906 7.75717 14.3159C8.88238 15.4411 10.4085 16.0732 11.9998 16.0732Z" fill="#8994AE"/>
</svg>
