<svg width="35" height="36" viewBox="0 0 35 36" fill="none" xmlns="http://www.w3.org/2000/svg">
<ellipse cx="17.857" cy="17.9799" rx="17.0562" ry="17.0531" fill="#282151" fill-opacity="0.56"/>
<path d="M22.0116 20.1725C22.6162 19.8477 23.3083 19.6629 24.0453 19.6629H24.0478C24.1228 19.6629 24.1578 19.5729 24.1028 19.523C23.3363 18.8352 22.4607 18.2797 21.5119 17.8793C21.5019 17.8743 21.4919 17.8718 21.4819 17.8668C23.0335 16.7402 24.0428 14.9091 24.0428 12.8433C24.0428 9.42099 21.2745 6.64819 17.8591 6.64819C14.4437 6.64819 11.6779 9.42099 11.6779 12.8433C11.6779 14.9091 12.6873 16.7402 14.2413 17.8668C14.2314 17.8718 14.2214 17.8743 14.2114 17.8793C13.0945 18.3514 12.0927 19.0284 11.2307 19.8927C10.3737 20.748 9.69141 21.7619 9.22192 22.8778C8.75998 23.9706 8.51068 25.1414 8.48737 26.3276C8.4867 26.3542 8.49138 26.3808 8.50112 26.4056C8.51087 26.4304 8.52549 26.453 8.54411 26.4721C8.56274 26.4912 8.585 26.5064 8.60958 26.5167C8.63416 26.5271 8.66057 26.5324 8.68724 26.5324H10.1838C10.2913 26.5324 10.3812 26.445 10.3837 26.3376C10.4337 24.4091 11.2057 22.603 12.5724 21.2341C13.984 19.8177 15.8629 19.0384 17.8616 19.0384C19.2783 19.0384 20.6374 19.4305 21.8092 20.165C21.8393 20.1839 21.8739 20.1945 21.9094 20.1958C21.9449 20.1972 21.9802 20.1891 22.0116 20.1725ZM17.8616 17.1399C16.7173 17.1399 15.6405 16.6927 14.8285 15.8809C14.429 15.4825 14.1122 15.0089 13.8966 14.4876C13.6809 13.9663 13.5705 13.4074 13.5718 12.8433C13.5718 11.6967 14.019 10.6175 14.8285 9.80569C15.638 8.99383 16.7148 8.54669 17.8616 8.54669C19.0084 8.54669 20.0828 8.99383 20.8948 9.80569C21.2943 10.2041 21.611 10.6776 21.8267 11.1989C22.0424 11.7203 22.1528 12.2791 22.1515 12.8433C22.1515 13.9899 21.7043 15.069 20.8948 15.8809C20.0828 16.6927 19.0059 17.1399 17.8616 17.1399ZM27.051 23.0851H24.9523V20.9868C24.9523 20.8769 24.8623 20.787 24.7524 20.787H23.3533C23.2433 20.787 23.1534 20.8769 23.1534 20.9868V23.0851H21.0547C20.9447 23.0851 20.8548 23.1751 20.8548 23.285V24.6839C20.8548 24.7938 20.9447 24.8837 21.0547 24.8837H23.1534V26.9821C23.1534 27.092 23.2433 27.1819 23.3533 27.1819H24.7524C24.8623 27.1819 24.9523 27.092 24.9523 26.9821V24.8837H27.051C27.1609 24.8837 27.2509 24.7938 27.2509 24.6839V23.285C27.2509 23.1751 27.1609 23.0851 27.051 23.0851Z" fill="#999AA9"/>
</svg>
