<svg width="35" height="35" viewBox="0 0 35 35" fill="none" xmlns="http://www.w3.org/2000/svg">
<ellipse cx="17.0562" cy="17.0531" rx="17.0562" ry="17.0531" fill="#282151" fill-opacity="0.56"/>
<path d="M13.1689 23.5854L16.1398 25.8854C16.5231 26.2687 17.3856 26.4604 17.9606 26.4604H21.6023C22.7523 26.4604 23.9981 25.5979 24.2856 24.4479L26.5856 17.452C27.0648 16.1104 26.2023 14.9604 24.7648 14.9604H20.9314C20.3564 14.9604 19.8773 14.4812 19.9731 13.8104L20.4523 10.7437C20.6439 9.8812 20.0689 8.92287 19.2064 8.63537C18.4398 8.34787 17.4814 8.7312 17.0981 9.3062L13.1689 15.152" stroke="#999AA9" stroke-width="1.5" stroke-miterlimit="10"/>
<path d="M8.28125 23.5853V14.1936C8.28125 12.852 8.85625 12.3728 10.1979 12.3728H11.1563C12.4979 12.3728 13.0729 12.852 13.0729 14.1936V23.5853C13.0729 24.927 12.4979 25.4061 11.1563 25.4061H10.1979C8.85625 25.4061 8.28125 24.927 8.28125 23.5853Z" stroke="#999AA9" stroke-width="1.5" stroke-linecap="round" stroke-linejoin="round"/>
</svg>
