<svg width="22" height="26" viewBox="0 0 22 26" fill="none" xmlns="http://www.w3.org/2000/svg">
<path d="M11.0001 25.5535C9.72846 25.5535 8.46846 25.1802 7.4768 24.4452L2.46013 20.7002C1.13013 19.7085 0.0917969 17.6318 0.0917969 15.9868V7.30684C0.0917969 5.51018 1.41013 3.59684 3.1018 2.96684L8.92346 0.785176C10.0785 0.353509 11.8985 0.353509 13.0535 0.785176L18.8751 2.96684C20.5668 3.59684 21.8851 5.51018 21.8851 7.30684V15.9752C21.8851 17.6318 20.8468 19.6968 19.5168 20.6885L14.5001 24.4335C13.5318 25.1802 12.2718 25.5535 11.0001 25.5535ZM9.5418 2.43018L3.72013 4.61184C2.72846 4.98518 1.85346 6.24518 1.85346 7.31851V15.9868C1.85346 17.0952 2.63513 18.6468 3.51013 19.3002L8.5268 23.0452C9.86846 24.0485 12.1318 24.0485 13.4851 23.0452L18.5018 19.3002C19.3885 18.6352 20.1585 17.0952 20.1585 15.9868V7.30684C20.1585 6.24518 19.2835 4.98518 18.2918 4.60018L12.4701 2.41851C11.6768 2.13851 10.3235 2.13851 9.5418 2.43018Z" fill="#E6E6EA"/>
<path d="M9.43718 15.6016C9.21551 15.6016 8.99384 15.52 8.81884 15.345L6.94051 13.4666C6.77778 13.302 6.68652 13.0798 6.68652 12.8483C6.68652 12.6168 6.77778 12.3946 6.94051 12.23C7.27884 11.8916 7.83884 11.8916 8.17718 12.23L9.43718 13.49L13.8355 9.09164C14.1738 8.75331 14.7338 8.75331 15.0722 9.09164C15.4105 9.42997 15.4105 9.98997 15.0722 10.3283L10.0555 15.345C9.88051 15.52 9.65884 15.6016 9.43718 15.6016Z" fill="#E6E6EA"/>
</svg>
