<svg width="35" height="35" viewBox="0 0 35 35" fill="none" xmlns="http://www.w3.org/2000/svg">
<ellipse cx="17.6178" cy="17.0531" rx="17.0562" ry="17.0531" fill="#282151" fill-opacity="0.56"/>
<mask id="mask0_494_17214" style="mask-type:alpha" maskUnits="userSpaceOnUse" x="7" y="8" width="21" height="19">
<path fill-rule="evenodd" clip-rule="evenodd" d="M7.56152 8H27.5752V26.1855H7.56152V8Z" fill="white"/>
</mask>
<g mask="url(#mask0_494_17214)">
<path fill-rule="evenodd" clip-rule="evenodd" d="M17.5745 9.5C17.0985 9.5 16.6745 9.746 16.4365 10.159L9.23854 22.724C9.00454 23.134 9.00654 23.623 9.24354 24.032C9.48054 24.441 9.90454 24.686 10.3775 24.686H24.7605C25.2325 24.686 25.6565 24.441 25.8935 24.032C26.1315 23.623 26.1335 23.134 25.8975 22.724L18.7125 10.159C18.4755 9.746 18.0515 9.5 17.5745 9.5ZM24.7605 26.186H10.3775C9.36354 26.186 8.45454 25.662 7.94554 24.784C7.43654 23.907 7.43354 22.858 7.93654 21.979L15.1365 9.413C15.6425 8.528 16.5535 8 17.5745 8H17.5755C18.5955 8 19.5085 8.529 20.0145 9.415L27.2005 21.979C27.7035 22.858 27.7005 23.907 27.1915 24.784C26.6825 25.662 25.7735 26.186 24.7605 26.186Z" fill="#999AA9"/>
</g>
<path fill-rule="evenodd" clip-rule="evenodd" d="M17.5654 19.164C17.1514 19.164 16.8154 18.828 16.8154 18.414V15.314C16.8154 14.9 17.1514 14.564 17.5654 14.564C17.9794 14.564 18.3154 14.9 18.3154 15.314V18.414C18.3154 18.828 17.9794 19.164 17.5654 19.164Z" fill="#999AA9"/>
<path fill-rule="evenodd" clip-rule="evenodd" d="M17.5675 22.499C17.0145 22.499 16.5625 22.052 16.5625 21.499C16.5625 20.946 17.0055 20.499 17.5575 20.499H17.5675C18.1205 20.499 18.5675 20.946 18.5675 21.499C18.5675 22.052 18.1205 22.499 17.5675 22.499Z" fill="#999AA9"/>
</svg>
