<svg width="35" height="35" viewBox="0 0 35 35" fill="none" xmlns="http://www.w3.org/2000/svg">
<ellipse cx="17.0562" cy="17.0531" rx="17.0562" ry="17.0531" fill="#282151" fill-opacity="0.56"/>
<path fill-rule="evenodd" clip-rule="evenodd" d="M18.4361 7.04389C18.6293 6.95987 18.8541 6.99851 19.0083 7.14245L26.9495 14.5541C27.0567 14.6542 27.1177 14.7944 27.1177 14.9412C27.1177 15.088 27.0567 15.228 26.9495 15.3281L19.0083 22.7398C18.8541 22.8837 18.6293 22.9223 18.4361 22.8383C18.2427 22.7543 18.1176 22.5636 18.1176 22.3528V17.5881H15.7587C13.479 17.5881 11.374 18.8096 10.2429 20.7892L7.9891 24.7332C7.86999 24.9415 7.62555 25.0438 7.39351 24.9823C7.16166 24.9206 7 24.7105 7 24.4705V18.6467C7 14.5533 10.3185 11.2351 14.4121 11.2351H18.1178V7.52914C18.1178 7.31839 18.243 7.12765 18.4364 7.04364L18.4361 7.04389ZM19.1765 8.7477V11.7648C19.1765 12.0571 18.9394 12.2941 18.6471 12.2941H14.4118C10.9032 12.2941 8.05887 15.1384 8.05887 18.647V22.4771L9.32343 20.264C10.6431 17.9546 13.0988 16.5295 15.7585 16.5295H18.6469C18.9392 16.5295 19.1764 16.7665 19.1764 17.0588V21.1346L25.812 14.9414L19.1765 8.7477Z" fill="#999AA9"/>
</svg>
