<svg width="12" height="12" viewBox="0 0 12 12" fill="none" xmlns="http://www.w3.org/2000/svg">
<path d="M9 7.08716V8.08716H3V7.08716C3 6.82194 2.89464 6.56759 2.70711 6.38005C2.51957 6.19251 2.26522 6.08716 2 6.08716C1.73478 6.08716 1.48043 6.19251 1.29289 6.38005C1.10536 6.56759 1 6.82194 1 7.08716V10.0872H11V7.08716C11 6.82194 10.8946 6.56759 10.7071 6.38005C10.5196 6.19251 10.2652 6.08716 10 6.08716V6.08716C9.73478 6.08716 9.48043 6.19251 9.29289 6.38005C9.10536 6.56759 9 6.82194 9 7.08716V7.08716Z" stroke="#21C864" stroke-linecap="round" stroke-linejoin="round"/>
<path d="M2.33301 4.75374V2.42041C2.33301 2.15519 2.43836 1.90084 2.6259 1.7133C2.81344 1.52577 3.06779 1.42041 3.33301 1.42041H8.66634C8.93156 1.42041 9.18591 1.52577 9.37345 1.7133C9.56098 1.90084 9.66634 2.15519 9.66634 2.42041V4.75374" stroke="#21C864" stroke-linecap="round" stroke-linejoin="round"/>
<path d="M2.33301 10.0872V11.4205" stroke="#21C864" stroke-linecap="round" stroke-linejoin="round"/>
<path d="M9.66699 10.0872V11.4205" stroke="#21C864" stroke-linecap="round" stroke-linejoin="round"/>
</svg>
