<svg width="54" height="54" viewBox="0 0 54 54" fill="none" xmlns="http://www.w3.org/2000/svg">
<circle cx="27" cy="27" r="27" fill="white"/>
<path d="M17.58 34.011L17.56 34.031C17.29 33.441 17.12 32.771 17.05 32.031C17.12 32.761 17.31 33.421 17.58 34.011Z" fill="#140E36"/>
<path d="M24.0011 25.3811C24.6323 25.3811 25.2377 25.1303 25.684 24.684C26.1303 24.2377 26.3811 23.6323 26.3811 23.0011C26.3811 22.3699 26.1303 21.7645 25.684 21.3182C25.2377 20.8718 24.6323 20.6211 24.0011 20.6211C23.3699 20.6211 22.7645 20.8718 22.3182 21.3182C21.8718 21.7645 21.6211 22.3699 21.6211 23.0011C21.6211 23.6323 21.8718 24.2377 22.3182 24.684C22.7645 25.1303 23.3699 25.3811 24.0011 25.3811V25.3811Z" fill="#140E36"/>
<path d="M31.19 17H22.81C19.17 17 17 19.17 17 22.81V31.19C17 32.28 17.19 33.23 17.56 34.03C18.42 35.93 20.26 37 22.81 37H31.19C34.83 37 37 34.83 37 31.19V22.81C37 19.17 34.83 17 31.19 17ZM35.37 27.5C34.59 26.83 33.33 26.83 32.55 27.5L28.39 31.07C27.61 31.74 26.35 31.74 25.57 31.07L25.23 30.79C24.52 30.17 23.39 30.11 22.59 30.65L18.85 33.16C18.63 32.6 18.5 31.95 18.5 31.19V22.81C18.5 19.99 19.99 18.5 22.81 18.5H31.19C34.01 18.5 35.5 19.99 35.5 22.81V27.61L35.37 27.5V27.5Z" fill="#140E36"/>
</svg>
