<svg width="35" height="35" viewBox="0 0 35 35" fill="none" xmlns="http://www.w3.org/2000/svg">
<ellipse cx="18.9438" cy="17.0531" rx="17.0562" ry="17.0531" transform="rotate(180 18.9438 17.0531)" fill="#282151" fill-opacity="0.56"/>
<path d="M23.1123 10.5208L20.1415 8.22084C19.7581 7.8375 18.8956 7.64584 18.3206 7.64584H14.679C13.529 7.64584 12.2831 8.50834 11.9956 9.65834L9.69564 16.6542C9.21647 17.9958 10.079 19.1458 11.5165 19.1458H15.3498C15.9248 19.1458 16.404 19.625 16.3081 20.2958L15.829 23.3625C15.6373 24.225 16.2123 25.1833 17.0748 25.4708C17.8415 25.7583 18.7998 25.375 19.1831 24.8L23.1123 18.9542" stroke="#999AA9" stroke-width="1.5" stroke-miterlimit="10"/>
<path d="M28 10.5209V19.9126C28 21.2542 27.425 21.7334 26.0833 21.7334H25.125C23.7833 21.7334 23.2083 21.2542 23.2083 19.9126V10.5209C23.2083 9.17923 23.7833 8.70007 25.125 8.70007H26.0833C27.425 8.70007 28 9.17923 28 10.5209Z" stroke="#999AA9" stroke-width="1.5" stroke-linecap="round" stroke-linejoin="round"/>
</svg>
